<svg width="26" height="14" viewBox="0 0 26 14" fill="none" xmlns="http://www.w3.org/2000/svg">
<g clip-path="url(#clip0_696_3799)">
<path d="M13.0002 3.50033C13.6529 3.50033 14.182 2.97799 14.182 2.33366C14.182 1.68933 13.6529 1.16699 13.0002 1.16699C12.3475 1.16699 11.8184 1.68933 11.8184 2.33366C11.8184 2.97799 12.3475 3.50033 13.0002 3.50033Z" stroke="#F22020"/>
<path d="M1.18164 12.833C1.18164 7.03402 5.94371 2.33301 11.818 2.33301H14.1816C20.056 2.33301 24.818 7.03402 24.818 12.833V13.9997H1.18164V12.833Z" fill="#F22020"/>
<path d="M26 12.833H0V13.9997H26V12.833Z" fill="#F22020"/>
<path d="M10.2813 11.667L8.50391 5.48047H10.0043L11.1122 9.83267H11.1699L12.2894 5.48047H13.7782L14.9092 9.80989H14.967L16.0634 5.48047H17.5637L15.7864 11.667H14.2514L13.0742 7.47428H12.9934L11.8162 11.667H10.2813Z" fill="white"/>
</g>
<defs>
<clipPath id="clip0_696_3799">
<rect width="26" height="14" fill="white"/>
</clipPath>
</defs>
</svg>
