<svg width="32" height="32" viewBox="0 0 32 32" fill="none" xmlns="http://www.w3.org/2000/svg">
<path fill-rule="evenodd" clip-rule="evenodd" d="M4.4668 7.99997C4.4668 7.52132 4.85482 7.1333 5.33346 7.1333L26.6668 7.1333C27.1454 7.1333 27.5335 7.52132 27.5335 7.99997C27.5335 8.47862 27.1454 8.86664 26.6668 8.86664L5.33346 8.86663C4.85482 8.86663 4.4668 8.47861 4.4668 7.99997ZM26.6668 16.8666L5.33346 16.8666C4.85482 16.8666 4.4668 16.4786 4.4668 16C4.4668 15.5213 4.85482 15.1333 5.33346 15.1333L26.6668 15.1333C27.1454 15.1333 27.5335 15.5213 27.5335 16C27.5335 16.4786 27.1454 16.8666 26.6668 16.8666ZM4.4668 24C4.4668 23.5213 4.85482 23.1333 5.33346 23.1333L26.6668 23.1333C27.1454 23.1333 27.5335 23.5213 27.5335 24C27.5335 24.4786 27.1454 24.8666 26.6668 24.8666H5.33346C4.85482 24.8666 4.4668 24.4786 4.4668 24Z" fill="currentColor"/>
</svg>
