<svg viewBox="0 0 32 32" fill="none" xmlns="http://www.w3.org/2000/svg">
<path fill-rule="evenodd" clip-rule="evenodd" d="M10.2775 7.49718C8.74185 7.49718 7.49694 8.7421 7.49694 10.2778V21.7224C7.49694 23.2581 8.74185 24.503 10.2775 24.503H21.7221C23.2578 24.503 24.5027 23.2581 24.5027 21.7224V15.4278C24.5027 15.0673 24.795 14.775 25.1555 14.775C25.516 14.775 25.8083 15.0673 25.8083 15.4278V21.7224C25.8083 23.9791 23.9788 25.8085 21.7221 25.8085H10.2775C8.02084 25.8085 6.19141 23.9791 6.19141 21.7224V10.2778C6.19141 8.02106 8.02084 6.19165 10.2775 6.19165H18.2887C18.6493 6.19165 18.9415 6.4839 18.9415 6.84442C18.9415 7.20493 18.6493 7.49718 18.2887 7.49718H10.2775ZM24.4726 9.24397C24.7275 9.49889 24.7275 9.9122 24.4726 10.1671L16.4614 18.1783C16.2065 18.4332 15.7932 18.4332 15.5383 18.1783L13.2493 15.8894C12.9944 15.6345 12.9944 15.2211 13.2493 14.9662C13.5043 14.7113 13.9176 14.7113 14.1725 14.9662L15.9998 16.7936L23.5495 9.24397C23.8044 8.98905 24.2177 8.98905 24.4726 9.24397Z" fill="currentColor"/>
</svg>
