<svg viewBox="0 0 24 25" fill="none" xmlns="http://www.w3.org/2000/svg">
<path d="M13.5423 12.6083C13.5423 13.4455 12.8525 14.1243 12.0016 14.1243C11.1508 14.1243 10.4609 13.4455 10.4609 12.6083C10.4609 11.771 11.1508 11.0922 12.0016 11.0922C12.8525 11.0922 13.5423 11.771 13.5423 12.6083Z" fill="currentColor"/>
<path d="M13.5423 5.24064C13.5423 6.07786 12.8525 6.75667 12.0016 6.75667C11.1508 6.75667 10.4609 6.07786 10.4609 5.24064C10.4609 4.40342 11.1508 3.72461 12.0016 3.72461C12.8525 3.72461 13.5423 4.40342 13.5423 5.24064Z" fill="currentColor"/>
<path d="M13.5423 19.7594C13.5423 20.5966 12.8525 21.2754 12.0016 21.2754C11.1508 21.2754 10.4609 20.5966 10.4609 19.7594C10.4609 18.9222 11.1508 18.2434 12.0016 18.2434C12.8525 18.2434 13.5423 18.9222 13.5423 19.7594Z" fill="currentColor"/>
</svg>
