<svg viewBox="0 0 32 32" fill="none" xmlns="http://www.w3.org/2000/svg">
<path fill-rule="evenodd" clip-rule="evenodd" d="M7.62447 8.13789C7.24367 8.51869 7.02132 9.25126 7.02132 10.8929V16.7185C7.02132 18.3601 7.24367 19.0927 7.62447 19.4735C8.00527 19.8543 8.73783 20.0766 10.3795 20.0766H14.0593C14.4621 20.0766 14.7887 20.4032 14.7887 20.806C14.7887 21.2089 14.4621 21.5354 14.0593 21.5354H10.3795C8.74914 21.5354 7.43792 21.35 6.59293 20.505C5.74794 19.66 5.5625 18.3488 5.5625 16.7185V10.8929C5.5625 9.26257 5.74794 7.95134 6.59293 7.10635C7.43792 6.26137 8.74914 6.07593 10.3795 6.07593H20.6033C22.2336 6.07593 23.5449 6.26137 24.3899 7.10635C25.2349 7.95134 25.4203 9.26257 25.4203 10.8929C25.4203 11.2958 25.0937 11.6223 24.6909 11.6223C24.288 11.6223 23.9615 11.2958 23.9615 10.8929C23.9615 9.25126 23.7391 8.51869 23.3583 8.13789C22.9775 7.75709 22.245 7.53474 20.6033 7.53474H10.3795C8.73783 7.53474 8.00527 7.75709 7.62447 8.13789Z" fill="currentColor"/>
<path fill-rule="evenodd" clip-rule="evenodd" d="M14.0595 20.0767C14.4623 20.0767 14.7889 20.4032 14.7889 20.8061V25.1946C14.7889 25.5975 14.4623 25.924 14.0595 25.924C13.6566 25.924 13.3301 25.5975 13.3301 25.1946V20.8061C13.3301 20.4032 13.6566 20.0767 14.0595 20.0767Z" fill="currentColor"/>
<path fill-rule="evenodd" clip-rule="evenodd" d="M5.5625 16.9223C5.5625 16.5194 5.88907 16.1929 6.29191 16.1929H14.0593C14.4621 16.1929 14.7887 16.5194 14.7887 16.9223C14.7887 17.3251 14.4621 17.6517 14.0593 17.6517H6.29191C5.88907 17.6517 5.5625 17.3251 5.5625 16.9223Z" fill="currentColor"/>
<path fill-rule="evenodd" clip-rule="evenodd" d="M10.1641 25.1945C10.1641 24.7917 10.4906 24.4651 10.8935 24.4651H14.0587C14.4615 24.4651 14.7881 24.7917 14.7881 25.1945C14.7881 25.5973 14.4615 25.9239 14.0587 25.9239H10.8935C10.4906 25.9239 10.1641 25.5973 10.1641 25.1945Z" fill="currentColor"/>
<path fill-rule="evenodd" clip-rule="evenodd" d="M17.6044 14.9926C17.4057 15.1913 17.244 15.6203 17.244 16.7767V22.3206C17.244 23.477 17.4057 23.9061 17.6044 24.1047C17.8031 24.3034 18.2321 24.4652 19.3885 24.4652H22.8353C23.9917 24.4652 24.4207 24.3034 24.6194 24.1047C24.8181 23.9061 24.9798 23.477 24.9798 22.3206V16.7767C24.9798 15.6203 24.8181 15.1913 24.6194 14.9926C24.4207 14.7939 23.9917 14.6322 22.8353 14.6322H19.3885C18.2321 14.6322 17.8031 14.7939 17.6044 14.9926ZM16.5729 13.961C17.2359 13.298 18.2438 13.1733 19.3885 13.1733H22.8353C23.98 13.1733 24.9879 13.298 25.6509 13.961C26.3139 14.624 26.4386 15.632 26.4386 16.7767V22.3206C26.4386 23.4653 26.3139 24.4733 25.6509 25.1363C24.9879 25.7993 23.98 25.924 22.8353 25.924H19.3885C18.2438 25.924 17.2359 25.7993 16.5729 25.1363C15.9099 24.4733 15.7852 23.4653 15.7852 22.3206V16.7767C15.7852 15.632 15.9099 14.624 16.5729 13.961Z" fill="currentColor"/>
<path fill-rule="evenodd" clip-rule="evenodd" d="M20.3633 22.0683C20.3633 21.6654 20.6898 21.3389 21.0927 21.3389H21.1014C21.5043 21.3389 21.8308 21.6654 21.8308 22.0683C21.8308 22.4711 21.5043 22.7977 21.1014 22.7977H21.0927C20.6898 22.7977 20.3633 22.4711 20.3633 22.0683Z" fill="currentColor"/>
</svg>
