<svg viewBox="0 0 300 300" fill="none" xmlns="http://www.w3.org/2000/svg">
<g id="pos">
<g id="Layer 50">
<path id="Vector" d="M221.787 80.8989C223.046 82.2472 223.785 83.9993 223.873 85.842L221.787 80.8989ZM216.189 78.4285L221.598 80.7097L223.881 86.1184V118.698H207.95H199.293H76.3798L76.3797 86.1083L76.3797 86.1075C76.3484 84.106 77.1119 82.1737 78.5029 80.7343C79.8939 79.2949 81.7987 78.4658 83.8 78.4285H90.432V102.967H89.3057C88.1443 102.967 87.0305 103.428 86.2094 104.249C85.3882 105.071 84.9268 106.184 84.9268 107.346C84.9268 108.507 85.3882 109.621 86.2094 110.442C87.0305 111.263 88.1443 111.724 89.3057 111.724H94.8109L136.487 111.723L142.265 111.724C143.427 111.724 144.54 111.263 145.362 110.442C146.183 109.621 146.644 108.507 146.644 107.346C146.644 106.184 146.183 105.071 145.362 104.249C144.54 103.428 143.427 102.967 142.265 102.967H140.876V78.4285H199.293H207.95H216.189ZM216.465 78.4366C218.308 78.5236 220.06 79.2626 221.409 80.5214L216.465 78.4366ZM232.639 86.1083L232.639 86.1076C232.581 81.7658 230.831 77.618 227.76 74.5478C224.69 71.4776 220.542 69.7277 216.2 69.6708H216.199H140.876V61.989C140.876 60.8277 140.414 59.7139 139.593 58.8928C138.772 58.0716 137.658 57.6102 136.497 57.6102H94.8109C93.6495 57.6102 92.5358 58.0716 91.7146 58.8928C90.8934 59.7139 90.4321 60.8277 90.432 61.989V69.6709L83.7996 69.6709L83.7991 69.6709C79.4758 69.7107 75.3447 71.4636 72.3121 74.5452C69.2794 77.6267 67.5928 81.7853 67.6221 86.1087L67.6221 119.528C65.0269 120.412 62.7723 122.084 61.1741 124.313C59.569 126.551 58.707 129.236 58.7097 131.99L58.7097 180.754L58.7097 180.754C58.715 182.398 59.0291 184.026 59.6356 185.553H52.6003C51.439 185.553 50.3253 186.014 49.5041 186.836C48.6829 187.657 48.2215 188.77 48.2215 189.932V238.434C48.2215 239.595 48.6829 240.709 49.5041 241.53C50.3253 242.351 51.439 242.812 52.6003 242.812H247.398C248.56 242.812 249.673 242.351 250.494 241.53C251.316 240.709 251.777 239.595 251.777 238.434V189.932C251.777 188.77 251.316 187.657 250.494 186.836C249.673 186.014 248.56 185.553 247.398 185.553H240.416C240.992 184.019 241.289 182.393 241.291 180.754V131.991C241.343 129.262 240.531 126.586 238.971 124.346C237.418 122.116 235.202 120.431 232.639 119.531V86.1083ZM72.1282 127.456H72.1287H228.132C228.72 127.458 229.302 127.579 229.843 127.809C230.385 128.039 230.875 128.376 231.285 128.798C231.695 129.22 232.016 129.72 232.231 130.268C232.445 130.816 232.548 131.401 232.533 131.989V131.99L232.533 180.754L232.533 180.755C232.566 181.993 232.106 183.192 231.256 184.091C230.406 184.991 229.234 185.516 227.997 185.553H72.2648C71.0022 185.521 69.8003 185.005 68.9074 184.111C68.0146 183.218 67.499 182.016 67.4673 180.753V131.991C67.4868 130.772 67.988 129.611 68.8614 128.761C69.7349 127.911 70.9095 127.442 72.1282 127.456ZM99.1897 66.3678H132.118V102.966H99.1897V66.3678ZM243.019 234.055H56.9792V194.311H243.019V234.055Z" fill="currentColor" stroke="currentColor" stroke-width="0.1"/>
<path id="Vector_2" d="M146.232 211.132C145.427 211.943 144.975 213.04 144.977 214.184C144.974 214.468 145.003 214.751 145.063 215.028C145.11 215.311 145.19 215.587 145.301 215.85C145.41 216.106 145.54 216.352 145.691 216.586C145.855 216.816 146.035 217.033 146.232 217.236C146.635 217.64 147.114 217.961 147.642 218.18C148.169 218.399 148.734 218.512 149.306 218.513C149.873 218.512 150.436 218.399 150.959 218.18C151.483 217.961 151.959 217.64 152.358 217.236C152.762 216.837 153.083 216.362 153.302 215.838C153.522 215.314 153.634 214.752 153.634 214.184C153.634 213.616 153.522 213.053 153.302 212.529C153.083 212.005 152.762 211.53 152.358 211.132C151.53 210.35 150.434 209.914 149.295 209.914C148.156 209.914 147.06 210.35 146.232 211.132Z" fill="currentColor"/>
<path id="Vector_3" d="M216.495 142.967H89.3074C88.1593 142.967 87.0583 143.423 86.2465 144.235C85.4347 145.047 84.9786 146.148 84.9785 147.296V168.614C84.9786 169.762 85.4347 170.863 86.2465 171.675C87.0583 172.487 88.1593 172.943 89.3074 172.943H216.495C217.643 172.943 218.744 172.487 219.556 171.675C220.368 170.863 220.824 169.762 220.824 168.614V147.296C220.824 146.148 220.368 145.047 219.556 144.235C218.744 143.423 217.643 142.967 216.495 142.967ZM212.166 164.286H93.6362V151.624H212.166V164.286Z" fill="currentColor"/>
</g>
</g>
</svg>
