<svg viewBox="0 0 32 32" fill="none" xmlns="http://www.w3.org/2000/svg">
<path fill-rule="evenodd" clip-rule="evenodd" d="M15.9991 13.7667C14.7657 13.7667 13.7658 14.7666 13.7658 16.0001C13.7658 17.2335 14.7657 18.2334 15.9991 18.2334C17.2325 18.2334 18.2324 17.2335 18.2324 16.0001C18.2324 14.7666 17.2325 13.7667 15.9991 13.7667ZM12.2324 16.0001C12.2324 13.9198 13.9188 12.2334 15.9991 12.2334C18.0794 12.2334 19.7658 13.9198 19.7658 16.0001C19.7658 18.0803 18.0794 19.7667 15.9991 19.7667C13.9188 19.7667 12.2324 18.0803 12.2324 16.0001Z" fill="currentColor" />
<path fill-rule="evenodd" clip-rule="evenodd" d="M13.5882 7.77886C13.325 7.34054 12.7715 7.20494 12.3611 7.44909L12.3499 7.45572L10.6199 8.44563C10.0806 8.75381 9.89441 9.45272 10.2029 9.98667C10.7398 10.9129 10.8853 11.9304 10.4034 12.7668C9.92144 13.603 8.96743 13.9869 7.89909 13.9869C7.27513 13.9869 6.76576 14.501 6.76576 15.1202V16.8802C6.76576 17.4994 7.27513 18.0135 7.89909 18.0135C8.96743 18.0135 9.92144 18.3974 10.4034 19.2337C10.8852 20.0698 10.7393 21.088 10.2028 22.014C9.89448 22.5479 10.0802 23.2464 10.6195 23.5546L12.3611 24.5512C12.7715 24.7954 13.325 24.6599 13.5882 24.2216L13.6956 24.0361C14.2322 23.1102 15.0431 22.476 16.0078 22.476C16.9732 22.476 17.7815 23.1105 18.3133 24.0373C18.3136 24.0378 18.3139 24.0384 18.3142 24.0389L18.42 24.2216C18.6832 24.6599 19.2367 24.7955 19.6471 24.5513L19.6582 24.5447L21.3883 23.5548C21.9262 23.2474 22.1152 22.5583 21.8044 22.0122C21.2687 21.0867 21.1233 20.0693 21.6048 19.2337C22.0867 18.3974 23.0407 18.0135 24.1091 18.0135C24.733 18.0135 25.2424 17.4994 25.2424 16.8802V15.1202C25.2424 14.4963 24.7283 13.9869 24.1091 13.9869C23.0407 13.9869 22.0867 13.603 21.6048 12.7668C21.1229 11.9305 21.2689 10.9123 21.8055 9.98616C22.1136 9.45228 21.9279 8.75395 21.3887 8.44587L19.647 7.44919C19.2367 7.20504 18.6832 7.34053 18.42 7.77883L18.3126 7.96434C17.7759 8.89021 16.9651 9.52438 16.0003 9.52438C15.0349 9.52438 14.2265 8.88978 13.6948 7.9629C13.6945 7.96243 13.6942 7.96197 13.694 7.9615L13.5882 7.77886ZM11.5832 6.12771C12.7508 5.43758 14.2315 5.86118 14.908 6.99822L14.9126 7.00606L15.0242 7.19892C15.3925 7.84128 15.7738 7.99105 16.0003 7.99105C16.2281 7.99105 16.6123 7.83993 16.9856 7.19608C16.9855 7.19619 16.9857 7.19597 16.9856 7.19608L17.1002 6.99819C17.7766 5.86115 19.2574 5.43758 20.425 6.12772L22.1495 7.11456C23.4301 7.84638 23.8644 9.48771 23.1329 10.7538C22.7598 11.3976 22.8203 11.805 22.9333 12.0012C23.0464 12.1974 23.3674 12.4535 24.1091 12.4535C25.5699 12.4535 26.7758 13.6442 26.7758 15.1202V16.8802C26.7758 18.341 25.5851 19.5469 24.1091 19.5469C23.3674 19.5469 23.0464 19.803 22.9333 19.9993C22.8203 20.1954 22.7592 20.602 23.1324 21.2458L23.1348 21.2498C23.8626 22.5235 23.4311 24.1535 22.1495 24.8859L20.425 25.8727C20.427 25.8715 20.429 25.8703 20.4311 25.8691L20.0391 25.2102L20.4199 25.8756L20.425 25.8727C19.2573 26.5628 17.7767 26.1392 17.1002 25.0022L17.0955 24.9944L16.9856 24.8043L16.984 24.8015C16.6157 24.1591 16.2344 24.0094 16.0078 24.0094C15.7801 24.0094 15.3959 24.1605 15.0226 24.8043L14.908 25.0022C14.2316 26.1393 12.7509 26.5628 11.5832 25.8727L11.5883 25.8756L11.9691 25.2102L11.5771 25.8691C11.5791 25.8703 11.5812 25.8715 11.5832 25.8727L9.85871 24.8859C8.57835 24.1539 8.14384 22.5126 8.87526 21.2467C9.24841 20.6029 9.18785 20.1954 9.07483 19.9993C8.96173 19.803 8.64075 19.5469 7.89909 19.5469C6.42305 19.5469 5.23242 18.341 5.23242 16.8802V15.1202C5.23242 13.6594 6.42305 12.4535 7.89909 12.4535C8.64075 12.4535 8.96173 12.1974 9.07483 12.0012C9.18785 11.805 9.24894 11.3985 8.87579 10.7547C8.14429 9.48863 8.57803 7.84638 9.85871 7.11456"  fill="currentColor"/>
</svg>
