<svg viewBox="0 0 21 20" fill="none" xmlns="http://www.w3.org/2000/svg">
<path fill-rule="evenodd" clip-rule="evenodd" d="M14.5304 2.77134C15.0264 2.27508 15.8307 2.27475 16.3271 2.77058L17.7287 4.17055C18.2254 4.6666 18.2257 5.47135 17.7295 5.96781L11.1131 12.5877C10.9361 12.7647 10.7107 12.8856 10.4653 12.935L7.50969 13.5305C7.35919 13.5609 7.2035 13.5138 7.09498 13.4052C6.98645 13.2966 6.9395 13.1409 6.96991 12.9905L7.56652 10.0384C7.61602 9.79349 7.73664 9.5686 7.91328 9.39186L14.5304 2.77134ZM15.6793 3.41914C15.541 3.28099 15.3169 3.28109 15.1787 3.41935L8.56163 10.0399C8.51241 10.0891 8.47881 10.1518 8.46502 10.22L8.00511 12.4956L10.2842 12.0364C10.3526 12.0226 10.4154 11.989 10.4647 11.9396L17.0811 5.3198C17.2194 5.18149 17.2193 4.9573 17.0809 4.81911L15.6793 3.41914ZM5.79445 4.60394C4.70161 4.60394 3.81571 5.48983 3.81571 6.5826V14.706C3.81571 15.7987 4.70161 16.6846 5.79445 16.6846H13.918C15.0109 16.6846 15.8967 15.7987 15.8967 14.706L15.8967 10.6443C15.8967 10.3912 16.102 10.186 16.3551 10.186C16.6082 10.186 16.8134 10.3912 16.8134 10.6443V14.706C16.8134 16.305 15.5171 17.6013 13.918 17.6013H5.79445C4.19538 17.6013 2.89905 16.305 2.89905 14.706V6.5826C2.89905 4.98354 4.19538 3.68728 5.79445 3.68728H9.85623C10.1094 3.68728 10.3146 3.89248 10.3146 4.14561C10.3146 4.39874 10.1094 4.60394 9.85623 4.60394H5.79445Z" fill="currentColor"/>
</svg>
