<svg width="40" height="40" viewBox="0 0 40 40" fill="none" xmlns="http://www.w3.org/2000/svg">
<path fill-rule="evenodd" clip-rule="evenodd" d="M6.65638 9.71435C6.6564 7.31456 8.60182 5.36914 11.0016 5.36914H26.4306C28.8304 5.36914 30.7758 7.31457 30.7758 9.71438V16.5715C30.7758 17.0778 30.3654 17.4882 29.8591 17.4882C29.3529 17.4882 28.9425 17.0778 28.9425 16.5715V9.71438C28.9425 8.32709 27.8179 7.20247 26.4306 7.20247H11.0016C9.61434 7.20247 8.48972 8.32708 8.48972 9.71437L8.48958 30.2857C8.48957 31.673 9.61419 32.7976 11.0015 32.7976H19.5729C20.0792 32.7976 20.4896 33.208 20.4896 33.7143C20.4896 34.2206 20.0792 34.631 19.5729 34.631H11.0015C8.60166 34.631 6.65623 32.6855 6.65625 30.2857L6.65638 9.71435ZM12.6568 13.1429C12.6568 12.6367 13.0672 12.2263 13.5735 12.2263H23.8592C24.3654 12.2263 24.7758 12.6367 24.7758 13.1429C24.7758 13.6492 24.3654 14.0596 23.8592 14.0596H13.5735C13.0672 14.0596 12.6568 13.6492 12.6568 13.1429ZM12.6568 18.2858C12.6568 17.7795 13.0672 17.3691 13.5735 17.3691H23.8592C24.3654 17.3691 24.7758 17.7795 24.7758 18.2858C24.7758 18.7921 24.3654 19.2025 23.8592 19.2025H13.5735C13.0672 19.2025 12.6568 18.7921 12.6568 18.2858ZM28.0233 21.8395C28.5783 21.2161 29.3921 20.8365 30.3908 20.8365C31.3658 20.8365 32.1414 21.2367 32.6536 21.8757C33.1444 22.488 33.3473 23.2581 33.3473 23.9703V29.2834C33.3473 30.6468 32.6339 31.8732 31.6886 32.7333C30.7425 33.5942 29.4613 34.185 28.154 34.185C26.8474 34.185 25.5623 33.5948 24.6121 32.735C23.6629 31.8762 22.9425 30.6495 22.9425 29.2834V25.0772C22.9425 24.5709 23.3529 24.1605 23.8592 24.1605C24.3654 24.1605 24.7758 24.5709 24.7758 25.0772V29.2834C24.7758 29.9959 25.1635 30.7616 25.8421 31.3756C26.5197 31.9887 27.382 32.3516 28.154 32.3516C28.9252 32.3516 29.7823 31.9893 30.4548 31.3773C31.1282 30.7646 31.5139 29.9986 31.5139 29.2834V23.9703C31.5139 23.5821 31.4005 23.2436 31.2232 23.0224C31.0673 22.828 30.8231 22.6699 30.3908 22.6699C29.8842 22.6699 29.5795 22.8486 29.3925 23.0586C29.19 23.2861 29.0706 23.6144 29.0706 23.9703V29.062C29.0706 29.5683 28.6602 29.9787 28.154 29.9787C27.6477 29.9787 27.2373 29.5683 27.2373 29.062V23.9703C27.2373 23.2258 27.4837 22.4455 28.0233 21.8395ZM12.6568 23.4287C12.6568 22.9224 13.0672 22.512 13.5735 22.512H18.7163C19.2226 22.512 19.633 22.9224 19.633 23.4287C19.633 23.9349 19.2226 24.3453 18.7163 24.3453H13.5735C13.0672 24.3453 12.6568 23.9349 12.6568 23.4287Z" fill="#999999"/>
</svg>
