<svg width="32" height="32" viewBox="0 0 32 32" fill="none" xmlns="http://www.w3.org/2000/svg">
<rect width="32" height="32" rx="12" fill="#F5F5F5"/>
<path fill-rule="evenodd" clip-rule="evenodd" d="M8.79199 11.0002C8.79199 10.701 9.03451 10.4585 9.33366 10.4585L22.667 10.4585C22.9661 10.4585 23.2087 10.701 23.2087 11.0002C23.2087 11.2993 22.9661 11.5418 22.667 11.5418L9.33366 11.5418C9.03451 11.5418 8.79199 11.2993 8.79199 11.0002ZM22.667 16.5418L9.33366 16.5418C9.0345 16.5418 8.79199 16.2993 8.79199 16.0002C8.79199 15.701 9.0345 15.4585 9.33366 15.4585L22.667 15.4585C22.9661 15.4585 23.2087 15.701 23.2087 16.0002C23.2087 16.2993 22.9661 16.5418 22.667 16.5418ZM8.79199 21.0002C8.79199 20.701 9.0345 20.4585 9.33366 20.4585H22.667C22.9661 20.4585 23.2087 20.701 23.2087 21.0002C23.2087 21.2993 22.9661 21.5418 22.667 21.5418L9.33366 21.5418C9.0345 21.5418 8.79199 21.2993 8.79199 21.0002Z" fill="#999999"/>
</svg>
