<svg viewBox="0 0 32 32" fill="none" xmlns="http://www.w3.org/2000/svg">
<path fill-rule="evenodd" clip-rule="evenodd" d="M21.9339 6.60276C20.8575 6.60276 19.9941 7.46612 19.9941 8.54258C19.9941 9.58138 20.7956 10.4189 21.809 10.4805C21.8882 10.473 21.9697 10.473 22.0488 10.4805C23.0607 10.419 23.8651 9.58234 23.8738 8.54027C23.8725 7.47326 23.008 6.60276 21.9339 6.60276ZM18.6875 8.54258C18.6875 6.74449 20.1358 5.29614 21.9339 5.29614C23.7337 5.29614 25.1804 6.7562 25.1804 8.54258V8.54725L25.1804 8.54725C25.1678 10.3019 23.7869 11.7256 22.0481 11.7886C22.0082 11.79 21.9683 11.7878 21.9289 11.782C21.8895 11.7878 21.8496 11.79 21.8098 11.7886C20.0717 11.7256 18.6875 10.3016 18.6875 8.54258Z" fill="currentColor"/>
<path fill-rule="evenodd" clip-rule="evenodd" d="M20.8454 12.9345C22.3533 12.6703 24.0684 12.9237 25.3095 13.7473L25.3107 13.748C26.1555 14.3112 26.6645 15.1192 26.6645 16.0103C26.6645 16.9015 26.1555 17.7094 25.3107 18.2726C24.079 19.0971 22.3847 19.3496 20.8801 19.097C20.5243 19.0372 20.2842 18.7004 20.344 18.3445C20.4037 17.9887 20.7406 17.7487 21.0964 17.8084C22.3453 18.0181 23.6857 17.7884 24.5847 17.1862L24.5859 17.1854C25.1583 16.8039 25.3579 16.3655 25.3579 16.0103C25.3579 15.6553 25.1584 15.2171 24.5865 14.8356C23.6768 14.2322 22.3166 14.0033 21.0708 14.2215C20.7154 14.2838 20.3769 14.0461 20.3146 13.6907C20.2523 13.3353 20.49 12.9968 20.8454 12.9345Z" fill="currentColor"/>
<path fill-rule="evenodd" clip-rule="evenodd" d="M6.77734 8.54258C6.77734 6.75619 8.22405 5.29614 10.0238 5.29614C11.8219 5.29614 13.2702 6.74449 13.2702 8.54258C13.2702 10.3016 11.886 11.7256 10.1479 11.7886C10.1081 11.79 10.0682 11.7878 10.0288 11.782C9.98939 11.7878 9.94951 11.79 9.90967 11.7886C8.17079 11.7256 6.78989 10.3019 6.77736 8.54725L6.77734 8.54258ZM8.08396 8.54025C8.0926 9.58233 8.89697 10.419 9.90888 10.4805C9.98806 10.473 10.0696 10.473 10.1487 10.4805C11.1621 10.4189 11.9636 9.58138 11.9636 8.54258C11.9636 7.46612 11.1002 6.60276 10.0238 6.60276C8.94975 6.60276 8.08522 7.47325 8.08396 8.54025Z" fill="currentColor"/>
<path fill-rule="evenodd" clip-rule="evenodd" d="M7.37097 14.8356C8.28069 14.2322 9.64087 14.0033 10.8866 14.2215C11.242 14.2838 11.5806 14.0461 11.6429 13.6907C11.7051 13.3353 11.4675 12.9968 11.1121 12.9345C9.60418 12.6703 7.88911 12.9237 6.64794 13.7473L6.64794 13.7473L6.64677 13.748C5.80196 14.3112 5.29297 15.1192 5.29297 16.0103C5.29297 16.9013 5.80172 17.709 6.64618 18.2722C7.87792 19.097 9.57256 19.3496 11.0774 19.097C11.4332 19.0372 11.6732 18.7004 11.6135 18.3445C11.5538 17.9887 11.2169 17.7487 10.861 17.8084C9.61215 18.0181 8.27173 17.7884 7.37273 17.1862L7.37155 17.1854C6.79918 16.8039 6.59959 16.3655 6.59959 16.0103C6.59959 15.6553 6.79905 15.2171 7.37097 14.8356Z" fill="currentColor"/>
<path fill-rule="evenodd" clip-rule="evenodd" d="M15.9046 14.1106C14.8282 14.1106 13.9648 14.9739 13.9648 16.0504C13.9648 17.0892 14.7663 17.9267 15.7797 17.9883C15.8598 17.9807 15.9423 17.9808 16.0224 17.9886C17.0276 17.9351 17.8358 17.0948 17.8445 16.0481C17.8432 14.9811 16.9787 14.1106 15.9046 14.1106ZM12.6582 16.0504C12.6582 14.2523 14.1065 12.804 15.9046 12.804C17.7044 12.804 19.1511 14.264 19.1511 16.0504V16.0551L19.1511 16.0551C19.1386 17.8055 17.7608 19.2459 16.014 19.2966C15.9758 19.2977 15.9375 19.2954 15.8996 19.2898C15.8602 19.2956 15.8203 19.2979 15.7805 19.2964C14.0424 19.2334 12.6582 17.8095 12.6582 16.0504Z" fill="currentColor"/>
<path fill-rule="evenodd" clip-rule="evenodd" d="M15.9983 20.3572C17.1577 20.3572 18.352 20.6462 19.2817 21.2659C20.1265 21.8292 20.6355 22.6371 20.6355 23.5282C20.6355 24.4192 20.1267 25.227 19.2822 25.7902C18.3483 26.4146 17.1543 26.7068 15.9945 26.7068C14.8347 26.7068 13.6406 26.4146 12.7067 25.7901C11.8623 25.2269 11.3535 24.4192 11.3535 23.5282C11.3535 22.6371 11.8625 21.8292 12.7073 21.2659L12.7089 21.2649L12.7089 21.2649C13.6427 20.6462 14.8387 20.3572 15.9983 20.3572ZM13.4313 22.3536C12.8595 22.7351 12.6601 23.1732 12.6601 23.5282C12.6601 23.8834 12.8597 24.3218 13.4321 24.7034L13.4329 24.7039C14.1071 25.1548 15.0337 25.4002 15.9945 25.4002C16.9554 25.4002 17.8819 25.1548 18.5562 24.7039L18.5569 24.7034C19.1293 24.3218 19.3289 23.8834 19.3289 23.5282C19.3289 23.1731 19.1293 22.7347 18.5569 22.3531C17.8885 21.9075 16.9621 21.6638 15.9983 21.6638C15.035 21.6638 14.1055 21.9073 13.4313 22.3536Z" fill="currentColor"/>
</svg>
