<svg viewBox="0 0 10 10" fill="none" xmlns="http://www.w3.org/2000/svg">
<path fill-rule="evenodd" clip-rule="evenodd" d="M4.99991 0.255859C5.25304 0.255859 5.45824 0.461062 5.45824 0.714193L5.45824 4.54157H9.28562C9.53875 4.54157 9.74395 4.74678 9.74395 4.99991C9.74395 5.25304 9.53875 5.45824 9.28562 5.45824H5.45824L5.45824 9.28562C5.45824 9.53875 5.25304 9.74395 4.99991 9.74395C4.74678 9.74395 4.54157 9.53875 4.54157 9.28562V5.45824H0.714193C0.461062 5.45824 0.255859 5.25304 0.255859 4.99991C0.255859 4.74678 0.461062 4.54157 0.714193 4.54157H4.54157V0.714193C4.54157 0.461062 4.74678 0.255859 4.99991 0.255859Z" fill="currentColor"/>
</svg>
