<svg xmlns="http://www.w3.org/2000/svg" viewBox="0 0 14 16" fill="none">
  <path fill-rule="evenodd" clip-rule="evenodd" d="M4.19065 1.82277C4.19065 1.11949 4.7314 0.5 5.45713 0.5H8.54295C9.26868 0.5 9.80943 1.11949 9.80943 1.82277V2.6464C9.80943 2.75735 9.79597 2.86622 9.77045 2.97089H13.1717C13.4451 2.97089 13.6667 3.19436 13.6667 3.47003C13.6667 3.74569 13.4451 3.96916 13.1717 3.96916H12.0848C12.1103 4.07384 12.1238 4.18271 12.1238 4.29366V13.3536C12.1238 14.5118 11.2377 15.5 10.0859 15.5H3.91422C2.76242 15.5 1.87629 14.5118 1.87629 13.3536V4.29366C1.87629 4.18271 1.88974 4.07384 1.91527 3.96916H0.828392C0.555001 3.96916 0.333374 3.74569 0.333374 3.47003C0.333374 3.19436 0.555001 2.97089 0.828392 2.97089H4.22963C4.20411 2.86622 4.19065 2.75735 4.19065 2.6464V1.82277ZM3.14276 3.96916C3.01636 3.96916 2.86632 4.08718 2.86632 4.29366V13.3536C2.86632 14.015 3.36176 14.5017 3.91422 14.5017H10.0859C10.6383 14.5017 11.1338 14.015 11.1338 13.3536V4.29366C11.1338 4.08718 10.9837 3.96916 10.8573 3.96916H3.14276ZM5.45713 1.49827C5.33073 1.49827 5.18069 1.61629 5.18069 1.82277V2.6464C5.18069 2.85288 5.33073 2.97089 5.45713 2.97089H8.54295C8.66935 2.97089 8.81939 2.85288 8.81939 2.6464V1.82277C8.81939 1.61629 8.66935 1.49827 8.54295 1.49827H5.45713ZM5.45713 6.26542C5.73052 6.26542 5.95215 6.48889 5.95215 6.76455V11.7063C5.95215 11.982 5.73052 12.2055 5.45713 12.2055C5.18374 12.2055 4.96211 11.982 4.96211 11.7063V6.76455C4.96211 6.48889 5.18374 6.26542 5.45713 6.26542ZM8.54295 6.26542C8.81634 6.26542 9.03797 6.48889 9.03797 6.76455V11.7063C9.03797 11.982 8.81634 12.2055 8.54295 12.2055C8.26956 12.2055 8.04794 11.982 8.04794 11.7063V6.76455C8.04794 6.48889 8.26956 6.26542 8.54295 6.26542Z" fill="currentColor"/>
</svg>