<svg viewBox="0 0 24 24" fill="none" xmlns="http://www.w3.org/2000/svg">
<path fill-rule="evenodd" clip-rule="evenodd" d="M12 4C12 4 13.1157 4 14.1355 4.4246C14.1355 4.4246 15.12 4.83453 15.879 5.58162C15.879 5.58162 16.6379 6.32871 17.0544 7.29789C17.0544 7.29789 17.4857 8.30177 17.4857 9.4C17.4857 9.4 17.4857 10.4982 17.0544 11.5021C17.0544 11.5021 16.6379 12.4713 15.879 13.2184C15.879 13.2184 15.12 13.9655 14.1355 14.3754C14.1355 14.3754 13.1157 14.8 12 14.8C12 14.8 10.8843 14.8 9.86453 14.3754C9.86453 14.3754 8.87997 13.9655 8.12102 13.2184C8.12102 13.2184 7.36207 12.4713 6.94563 11.5021C6.94563 11.5021 6.51429 10.4982 6.51429 9.4C6.51429 9.4 6.51429 8.30177 6.94563 7.29789C6.94563 7.29789 7.36207 6.32871 8.12102 5.58162C8.12102 5.58162 8.87996 4.83453 9.86453 4.4246C9.86453 4.4246 10.8843 4 12 4ZM12 5.2C12 5.2 10.2327 5.2 8.98301 6.43015C8.98301 6.43015 7.73333 7.6603 7.73333 9.4C7.73333 9.4 7.73333 11.1397 8.98301 12.3698C8.98301 12.3698 10.2327 13.6 12 13.6C12 13.6 13.7673 13.6 15.017 12.3698C15.017 12.3698 16.2667 11.1397 16.2667 9.4C16.2667 9.4 16.2667 7.6603 15.017 6.43015C15.017 6.43015 13.7673 5.2 12 5.2Z" fill="#C1C1C1"/>
<path d="M15.9622 15.8445C17.8011 16.8897 18.8626 18.7 18.8626 18.7C18.9434 18.8378 19.0765 18.9383 19.2327 18.9795C19.2841 18.9931 19.3372 19 19.3905 19C19.3969 19 19.4032 18.9999 19.4096 18.9997C19.5101 18.9966 19.6082 18.9691 19.6952 18.9196C19.8838 18.8125 20 18.6144 20 18.4C20 18.3907 19.9998 18.3815 19.9993 18.3722C19.9948 18.2764 19.9671 18.1831 19.9184 18.1C18.6935 16.0113 16.5718 14.8053 16.5718 14.8053C14.45 13.5993 12 13.5993 12 13.5993C9.54995 13.5993 7.42821 14.8053 7.42821 14.8053C5.30663 16.0112 4.08182 18.0997 4.08182 18.0997C4.02835 18.1909 4 18.2947 4 18.4L4.0001 18.4109C4.001 18.4597 4.00794 18.5082 4.02078 18.5553C4.06264 18.709 4.16481 18.8401 4.30481 18.9196C4.39746 18.9723 4.50255 19 4.60952 19C4.6208 19 4.63208 18.9997 4.64335 18.9991C4.84877 18.9878 5.03456 18.8753 5.13742 18.7C6.19893 16.8897 8.03778 15.8445 8.03778 15.8445C9.87663 14.7993 12 14.7993 12 14.7993C14.1234 14.7993 15.9622 15.8445 15.9622 15.8445Z" fill="#C1C1C1"/>
</svg>
